<?xml version="1.0" encoding="UTF-8"?>
<svg version="1.1" xmlns="http://www.w3.org/2000/svg" width="421" height="84">
<path d="M0 0 C2.64 0 5.28 0 8 0 C8 2.64 8 5.28 8 8 C10.31 8 12.62 8 15 8 C17.02466227 12.32215137 19.02108881 16.65674695 21 21 C21.29342285 21.64066406 21.5868457 22.28132813 21.88916016 22.94140625 C22.74959938 24.83122284 23.59542145 26.72694192 24.4375 28.625 C24.95183594 29.77226563 25.46617187 30.91953125 25.99609375 32.1015625 C27 35 27 35 26 38 C12.65475011 38.70653534 -0.63576581 39.14849149 -14 39 C-14.44270397 32.35002117 -12.80235665 26.51111 -11.0625 20.125 C-10.78470703 19.06796875 -10.50691406 18.0109375 -10.22070312 16.921875 C-8.14709548 9.14709548 -8.14709548 9.14709548 -7 8 C-4.66702567 7.95907063 -2.33294775 7.95758277 0 8 C0 5.36 0 2.72 0 0 Z M3 3 C3 4.98 3 6.96 3 9 C3.33 9 3.66 9 4 9 C4 7.02 4 5.04 4 3 C3.67 3 3.34 3 3 3 Z " fill="#93DA20" transform="translate(159,23)"/>
<path d="M0 0 C4.12093722 -0.54012284 7.89552302 -0.7429156 12 0 C14.95345891 2.47650281 16.31594734 5.57941711 18 9 C19.28149289 11.19347555 20.57331421 13.38094708 21.875 15.5625 C22.90625 17.356875 23.9375 19.15125 25 21 C25.33 16.05 25.66 11.1 26 6 C24.68 5.67 23.36 5.34 22 5 C22 3.35 22 1.7 22 0 C27.61 0 33.22 0 39 0 C39 1.65 39 3.3 39 5 C37.68 5.33 36.36 5.66 35 6 C35 16.56 35 27.12 35 38 C28 39 28 39 25.921875 37.640625 C23.13328213 33.80914374 20.67306683 29.8202435 18.25 25.75 C17.74339844 24.90953125 17.23679687 24.0690625 16.71484375 23.203125 C15.47139025 21.13852296 14.23499128 19.06967504 13 17 C12.67 21.95 12.34 26.9 12 32 C13.32 32.33 14.64 32.66 16 33 C16 34.65 16 36.3 16 38 C8.08 38.495 8.08 38.495 0 39 C0 37.02 0 35.04 0 33 C1.98 32.505 1.98 32.505 4 32 C4 23.42 4 14.84 4 6 C2.68 5.67 1.36 5.34 0 5 C0 3.35 0 1.7 0 0 Z " fill="#95D922" transform="translate(36,23)"/>
<path d="M0 0 C2.53541298 0.09086451 5.03554784 0.2370945 7.5625 0.4375 C8.62887695 0.51581055 8.62887695 0.51581055 9.71679688 0.59570312 C11.47821999 0.72574107 13.23916173 0.86226897 15 1 C15 2.65 15 4.3 15 6 C13.68 6.33 12.36 6.66 11 7 C11 9.97 11 12.94 11 16 C14.60348808 14.79883731 14.9058468 13.98158719 16.6875 10.75 C17.34298828 9.59757812 17.34298828 9.59757812 18.01171875 8.421875 C19.09669092 5.76304991 19.18655326 3.84367675 19 1 C20.93674185 0.80482446 22.87444009 0.61912127 24.8125 0.4375 C25.89144531 0.33308594 26.97039062 0.22867187 28.08203125 0.12109375 C31 0 31 0 34 1 C34.3125 3.3125 34.3125 3.3125 34 6 C32.34634594 7.02137457 30.67623498 8.01612294 29 9 C26.65411576 11.45887408 24.49185898 13.93776315 23 17 C23.22014832 21.15613337 24.94689188 23.83917673 27.3125 27.1875 C27.90675781 28.04730469 28.50101562 28.90710938 29.11328125 29.79296875 C30.98715149 31.98497017 32.34793284 32.95205293 35 34 C35 35.65 35 37.3 35 39 C29.72 39 24.44 39 19 39 C19 36.33333333 19 33.66666667 19 31 C18.03055247 29.12265395 18.03055247 29.12265395 16.6875 27.3125 C16.25824219 26.68988281 15.82898438 26.06726563 15.38671875 25.42578125 C14.92910156 24.95527344 14.47148437 24.48476563 14 24 C13.01 24 12.02 24 11 24 C11 26.97 11 29.94 11 33 C12.32 33.33 13.64 33.66 15 34 C15 35.65 15 37.3 15 39 C7.08 39.495 7.08 39.495 -1 40 C-1 38.02 -1 36.04 -1 34 C0.98 33.505 0.98 33.505 3 33 C3 24.42 3 15.84 3 7 C1.68 6.67 0.36 6.34 -1 6 C-1.042721 4.33388095 -1.04063832 2.66617115 -1 1 C-0.67 0.67 -0.34 0.34 0 0 Z " fill="#96D723" transform="translate(302,22)"/>
<path d="M0 0 C3.70920229 0.08129882 7.41681099 0.19410601 11.125 0.3125 C12.17171875 0.33505859 13.2184375 0.35761719 14.296875 0.38085938 C19.87767497 0.57512773 24.21359495 0.80108596 29 4 C31.62708538 7.34356321 31.36734573 10.88572783 31 15 C29.5 17.4375 29.5 17.4375 28 19 C28.639375 19.53625 29.27875 20.0725 29.9375 20.625 C32.49806095 23.57352473 32.92367544 25.10744759 33 29 C31.86321443 32.94531461 31.01740748 35.26529976 27.65234375 37.6953125 C22.30568579 39.60524166 17.25316822 39.31676888 11.625 39.1875 C9.94857422 39.16719727 9.94857422 39.16719727 8.23828125 39.14648438 C5.49168789 39.11127164 2.74609711 39.06202096 0 39 C0 37.35 0 35.7 0 34 C1.98 33.505 1.98 33.505 4 33 C4 24.42 4 15.84 4 7 C2.68 6.67 1.36 6.34 0 6 C0 4.02 0 2.04 0 0 Z M13 7 C11.79438816 7.98267859 11.79438816 7.98267859 11.90234375 9.84765625 C11.91394531 10.57855469 11.92554688 11.30945313 11.9375 12.0625 C11.958125 13.361875 11.97875 14.66125 12 16 C14.95547533 16.84442152 16.7385388 17.0653653 19.75 16.3125 C22.12077191 15.21003905 22.12077191 15.21003905 22.9375 13.0625 C23.20896722 10.68549908 23.20896722 10.68549908 21 8 C18.30981684 7.22980441 15.81868476 7.17896411 13 7 Z M12 23 C11.97310784 24.47906892 11.95365379 25.95827483 11.9375 27.4375 C11.92589844 28.26121094 11.91429687 29.08492187 11.90234375 29.93359375 C11.76732652 31.99163938 11.76732652 31.99163938 13 33 C15.0742997 32.97428296 15.0742997 32.97428296 17.4375 32.6875 C18.24058594 32.60886719 19.04367188 32.53023437 19.87109375 32.44921875 C22.20482915 32.15909117 22.20482915 32.15909117 24 30 C24.33333333 27.5 24.33333333 27.5 24 25 C22.18806994 22.75675164 22.18806994 22.75675164 19.6171875 22.8046875 C18.71226562 22.82789062 17.80734375 22.85109375 16.875 22.875 C15.96492187 22.89304687 15.05484375 22.91109375 14.1171875 22.9296875 C13.41851562 22.95289062 12.71984375 22.97609375 12 23 Z " fill="#94D91F" transform="translate(190,22)"/>
<path d="M0 0 C1.15886719 -0.00128906 2.31773437 -0.00257812 3.51171875 -0.00390625 C5.32736328 0.00189453 5.32736328 0.00189453 7.1796875 0.0078125 C8.39785156 0.00394531 9.61601562 0.00007813 10.87109375 -0.00390625 C12.60552734 -0.00197266 12.60552734 -0.00197266 14.375 0 C15.43992676 0.00112793 16.50485352 0.00225586 17.60205078 0.00341797 C20.0546875 0.1328125 20.0546875 0.1328125 21.0546875 1.1328125 C21.12695252 2.98568752 21.1384997 4.84115128 21.1171875 6.6953125 C21.10816406 7.70722656 21.09914063 8.71914063 21.08984375 9.76171875 C21.07824219 10.54417969 21.06664062 11.32664062 21.0546875 12.1328125 C18.7446875 12.1328125 16.4346875 12.1328125 14.0546875 12.1328125 C14.0546875 10.4828125 14.0546875 8.8328125 14.0546875 7.1328125 C13.0646875 7.6278125 13.0646875 7.6278125 12.0546875 8.1328125 C10.51444754 8.20231791 8.97133762 8.21733607 7.4296875 8.1953125 C6.20378906 8.18177734 6.20378906 8.18177734 4.953125 8.16796875 C4.01339844 8.15056641 4.01339844 8.15056641 3.0546875 8.1328125 C3.3846875 10.7728125 3.7146875 13.4128125 4.0546875 16.1328125 C8.0146875 16.1328125 11.9746875 16.1328125 16.0546875 16.1328125 C16.0546875 18.4428125 16.0546875 20.7528125 16.0546875 23.1328125 C12.0946875 23.4628125 8.1346875 23.7928125 4.0546875 24.1328125 C3.7246875 26.7728125 3.3946875 29.4128125 3.0546875 32.1328125 C6.6846875 32.4628125 10.3146875 32.7928125 14.0546875 33.1328125 C14.3846875 31.4828125 14.7146875 29.8328125 15.0546875 28.1328125 C17.0346875 28.1328125 19.0146875 28.1328125 21.0546875 28.1328125 C21.0546875 31.7628125 21.0546875 35.3928125 21.0546875 39.1328125 C11.1546875 39.1328125 1.2546875 39.1328125 -8.9453125 39.1328125 C-8.9453125 37.4828125 -8.9453125 35.8328125 -8.9453125 34.1328125 C-6.9653125 33.6378125 -6.9653125 33.6378125 -4.9453125 33.1328125 C-4.9453125 24.5528125 -4.9453125 15.9728125 -4.9453125 7.1328125 C-6.2653125 6.8028125 -7.5853125 6.4728125 -8.9453125 6.1328125 C-8.9453125 4.4828125 -8.9453125 2.8328125 -8.9453125 1.1328125 C-5.727246 0.06012367 -3.38237336 0.00357491 0 0 Z " fill="#94D920" transform="translate(349.9453125,21.8671875)"/>
<path d="M0 0 C2.46043274 3.47870692 3.88184267 7.09444434 5.26171875 11.10546875 C5.65810547 12.25337891 6.05449219 13.40128906 6.46289062 14.58398438 C7.06907227 16.36772461 7.06907227 16.36772461 7.6875 18.1875 C8.31108398 19.98864258 8.31108398 19.98864258 8.94726562 21.82617188 C12 30.72371459 12 30.72371459 12 33 C12.99 33.33 13.98 33.66 15 34 C15 35.65 15 37.3 15 39 C10.38 39 5.76 39 1 39 C1 37.35 1 35.7 1 34 C1.66 34 2.32 34 3 34 C2.67 32.68 2.34 31.36 2 30 C-1.63 29.67 -5.26 29.34 -9 29 C-8.67 32.3 -8.34 35.6 -8 39 C-12.62 39 -17.24 39 -22 39 C-22 37.35 -22 35.7 -22 34 C-21.01 33.34 -20.02 32.68 -19 32 C-18.0118143 29.68120817 -17.18153741 27.44727164 -16.40625 25.05859375 C-15.92840225 23.6568953 -15.45053714 22.25520277 -14.97265625 20.85351562 C-14.23231577 18.64012911 -13.49600188 16.42544618 -12.76123047 14.21020508 C-12.04840998 12.07292928 -11.3216433 9.94077383 -10.59375 7.80859375 C-10.37803345 7.14194199 -10.16231689 6.47529022 -9.94006348 5.78843689 C-9.30273438 3.92749023 -9.30273438 3.92749023 -8 1 C-4.95729435 -0.01423522 -3.15860793 -0.47379119 0 0 Z M-4 12 C-4.99 15.3 -5.98 18.6 -7 22 C-4.69 22.33 -2.38 22.66 0 23 C-0.28241641 21.53984709 -0.57626614 20.08190207 -0.875 18.625 C-1.11863281 17.40683594 -1.11863281 17.40683594 -1.3671875 16.1640625 C-1.86658932 13.81326077 -1.86658932 13.81326077 -4 12 Z " fill="#9AD725" transform="translate(248,22)"/>
<path d="M0 0 C3.5625 1.625 3.5625 1.625 5.5625 3.625 C5.7578125 5.7890625 5.7578125 5.7890625 5.6875 8.25 C5.66945313 9.06726562 5.65140625 9.88453125 5.6328125 10.7265625 C5.60960938 11.35304688 5.58640625 11.97953125 5.5625 12.625 C3.2525 12.625 0.9425 12.625 -1.4375 12.625 C-1.56125 11.820625 -1.685 11.01625 -1.8125 10.1875 C-2.01875 9.341875 -2.225 8.49625 -2.4375 7.625 C-4.84295638 6.42227181 -6.38746953 6.52428528 -9.0625 6.5625 C-9.87976563 6.57152344 -10.69703125 6.58054687 -11.5390625 6.58984375 C-12.16554688 6.60144531 -12.79203125 6.61304688 -13.4375 6.625 C-13.6488453 9.0162295 -13.6488453 9.0162295 -12.4375 11.625 C-10.33961884 12.85258112 -8.19457302 13.69601606 -5.93359375 14.5859375 C3.50815217 18.51630435 3.50815217 18.51630435 5.5625 22.625 C6.0952848 27.07069615 6.12557588 30.56641734 4 34.5625 C-0.46886016 38.34384321 -4.82469003 38.83861213 -10.5 38.4375 C-14.65281896 37.88758333 -17.94891701 37.06700809 -21.4375 34.625 C-23.18949635 31.73039733 -23.50688791 30.23561359 -23.125 26.875 C-22.4375 24.625 -22.4375 24.625 -21.4375 23.625 C-19.77132885 23.58436168 -18.10361905 23.582279 -16.4375 23.625 C-16.1075 25.605 -15.7775 27.585 -15.4375 29.625 C-11.93602959 30.7921568 -9.11079964 30.75857453 -5.4375 30.625 C-4.7775 30.295 -4.1175 29.965 -3.4375 29.625 C-3.31221668 27.2236606 -3.31221668 27.2236606 -4.4375 24.625 C-6.9088133 22.99821424 -9.61210043 22.03160987 -12.375 21 C-13.84564429 20.43269673 -15.31326504 19.85747615 -16.77734375 19.2734375 C-17.43081787 19.02770996 -18.08429199 18.78198242 -18.75756836 18.52880859 C-20.4375 17.625 -20.4375 17.625 -22.4375 14.625 C-22.98293879 11.55905985 -22.97126742 8.69281478 -22.4375 5.625 C-16.55085421 -2.06034312 -8.83134161 -3.16898779 0 0 Z " fill="#9BD628" transform="translate(102.4375,23.375)"/>
<path d="M0 0 C2 2 2 2 2.1953125 4.1640625 C2.17210937 4.97617187 2.14890625 5.78828125 2.125 6.625 C2.10695313 7.44226562 2.08890625 8.25953125 2.0703125 9.1015625 C2.04710937 9.72804688 2.02390625 10.35453125 2 11 C0.00045254 11.04254356 -2.00041636 11.04080783 -4 11 C-4.33 10.67 -4.66 10.34 -5 10 C-5 8.35 -5 6.7 -5 5 C-8.3 5 -11.6 5 -15 5 C-15.66 6.32 -16.32 7.64 -17 9 C-13.40124908 11.25751903 -9.75071024 13.02098641 -5.875 14.75 C0.68685718 18.02284749 0.68685718 18.02284749 2.375 21.4375 C3.22257943 26.26870276 2.50997434 29.69530232 -0.1875 33.8125 C-5.40861908 37.23323319 -10.54568154 37.30282843 -16.5546875 36.55859375 C-20.25001102 35.71445435 -22.86872089 34.11020984 -26 32 C-26.02689216 30.52093108 -26.04634621 29.04172517 -26.0625 27.5625 C-26.07410156 26.73878906 -26.08570313 25.91507813 -26.09765625 25.06640625 C-26 23 -26 23 -25 22 C-23.33382885 21.95936168 -21.66611905 21.957279 -20 22 C-19.71125 22.969375 -19.4225 23.93875 -19.125 24.9375 C-18.35785318 28.10664203 -18.35785318 28.10664203 -16 29 C-11.34724024 29.3052622 -11.34724024 29.3052622 -7 28 C-6.96382306 25.57858564 -6.96382306 25.57858564 -8 23 C-10.32546081 21.74852303 -12.34696076 20.85240754 -14.8125 20 C-19.78832288 18.24802142 -23.13196084 16.63407312 -26 12 C-26.764153 9.21742906 -26.6532755 6.8062443 -26 4 C-19.48016315 -4.82095573 -9.10623217 -4.56358302 0 0 Z " fill="#9ACF32" transform="translate(294,25)"/>
<path d="M0 0 C0.8247583 -0.00451172 1.6495166 -0.00902344 2.49926758 -0.01367188 C3.28325928 -0.01173828 4.06725098 -0.00980469 4.875 -0.0078125 C5.57367188 -0.00668457 6.27234375 -0.00555664 6.9921875 -0.00439453 C9.09771604 0.13129736 10.97300987 0.55292067 13 1.125 C13.02688151 2.77074566 13.04634123 4.41661413 13.0625 6.0625 C13.07410156 6.97902344 13.08570313 7.89554688 13.09765625 8.83984375 C13 11.125 13 11.125 12 12.125 C10.00041636 12.16580783 7.99954746 12.16754356 6 12.125 C5.34 10.805 4.68 9.485 4 8.125 C3.01 8.125 2.02 8.125 1 8.125 C0.67 16.375 0.34 24.625 0 33.125 C1.32 33.455 2.64 33.785 4 34.125 C4 35.775 4 37.425 4 39.125 C-1.61 39.125 -7.22 39.125 -13 39.125 C-13 37.475 -13 35.825 -13 34.125 C-11.02 33.63 -11.02 33.63 -9 33.125 C-9.33 24.875 -9.66 16.625 -10 8.125 C-11.32 8.125 -12.64 8.125 -14 8.125 C-14.33 9.445 -14.66 10.765 -15 12.125 C-17.31 12.125 -19.62 12.125 -22 12.125 C-22 8.495 -22 4.865 -22 1.125 C-14.64842794 0.36120031 -7.38528628 0.01693064 0 0 Z " fill="#95D12E" transform="translate(134,21.875)"/>
<path d="M0 0 C1.06116531 0.03541649 1.06116531 0.03541649 2.14376831 0.07154846 C4.40594505 0.14819459 6.66778023 0.23221437 8.9296875 0.31640625 C10.4622228 0.36962602 11.99477484 0.42236643 13.52734375 0.47460938 C17.28667511 0.60381092 21.04571658 0.73962662 24.8046875 0.87890625 C24.8046875 4.50890625 24.8046875 8.13890625 24.8046875 11.87890625 C22.4946875 11.87890625 20.1846875 11.87890625 17.8046875 11.87890625 C17.8046875 10.22890625 17.8046875 8.57890625 17.8046875 6.87890625 C16.1546875 7.20890625 14.5046875 7.53890625 12.8046875 7.87890625 C12.4746875 16.12890625 12.1446875 24.37890625 11.8046875 32.87890625 C13.1246875 33.20890625 14.4446875 33.53890625 15.8046875 33.87890625 C16.3671875 35.81640625 16.3671875 35.81640625 16.8046875 37.87890625 C14.74526279 39.93833096 10.64505015 39.33797441 7.8046875 39.50390625 C7.05445313 39.55546875 6.30421875 39.60703125 5.53125 39.66015625 C3.62459101 39.77717142 1.71437828 39.83283915 -0.1953125 39.87890625 C-1.1953125 38.87890625 -1.1953125 38.87890625 -1.2578125 36.31640625 C-1.2371875 35.51203125 -1.2165625 34.70765625 -1.1953125 33.87890625 C0.7846875 33.38390625 0.7846875 33.38390625 2.8046875 32.87890625 C2.4746875 24.62890625 2.1446875 16.37890625 1.8046875 7.87890625 C0.4846875 7.87890625 -0.8353125 7.87890625 -2.1953125 7.87890625 C-2.5253125 9.19890625 -2.8553125 10.51890625 -3.1953125 11.87890625 C-5.1753125 11.87890625 -7.1553125 11.87890625 -9.1953125 11.87890625 C-9.1953125 8.24890625 -9.1953125 4.61890625 -9.1953125 0.87890625 C-6.22129914 -0.60810043 -3.24712324 -0.12729307 0 0 Z " fill="#98D824" transform="translate(386.1953125,22.12109375)"/>
<path d="M0 0 C3.3 0.66 6.6 1.32 10 2 C10 3.65 10 5.3 10 7 C8.68 7.33 7.36 7.66 6 8 C6 16.58 6 25.16 6 34 C7.32 34.33 8.64 34.66 10 35 C10 36.65 10 38.3 10 40 C7.35448944 40.19386492 4.70882217 40.38038267 2.0625 40.5625 C0.93038086 40.64661133 0.93038086 40.64661133 -0.22460938 40.73242188 C-2.14745958 40.86176157 -4.07389548 40.93516912 -6 41 C-7 40 -7 40 -7.0625 37.4375 C-7.041875 36.633125 -7.02125 35.82875 -7 35 C-5.02 34.505 -5.02 34.505 -3 34 C-3.13837796 29.70805854 -3.28695939 25.41653071 -3.4375 21.125 C-3.47681641 19.90167969 -3.51613281 18.67835937 -3.55664062 17.41796875 C-3.59853516 16.25136719 -3.64042969 15.08476563 -3.68359375 13.8828125 C-3.72025146 12.80402832 -3.75690918 11.72524414 -3.79467773 10.61376953 C-3.83376643 8.01930464 -3.83376643 8.01930464 -5 6 C-4.67 5.34 -4.34 4.68 -4 4 C-3.34 4 -2.68 4 -2 4 C-1.34 2.68 -0.68 1.36 0 0 Z " fill="#95D722" transform="translate(22,21)"/>
<path d="M0 0 C1.15886719 -0.00128906 2.31773437 -0.00257812 3.51171875 -0.00390625 C5.32736328 0.00189453 5.32736328 0.00189453 7.1796875 0.0078125 C8.39785156 0.00394531 9.61601562 0.00007813 10.87109375 -0.00390625 C12.60552734 -0.00197266 12.60552734 -0.00197266 14.375 0 C15.43992676 0.00112793 16.50485352 0.00225586 17.60205078 0.00341797 C20.0546875 0.1328125 20.0546875 0.1328125 21.0546875 1.1328125 C21.12695252 2.98568752 21.1384997 4.84115128 21.1171875 6.6953125 C21.10816406 7.70722656 21.09914063 8.71914063 21.08984375 9.76171875 C21.07824219 10.54417969 21.06664062 11.32664062 21.0546875 12.1328125 C18.7446875 12.1328125 16.4346875 12.1328125 14.0546875 12.1328125 C14.0546875 10.4828125 14.0546875 8.8328125 14.0546875 7.1328125 C13.0646875 7.6278125 13.0646875 7.6278125 12.0546875 8.1328125 C10.51444754 8.20231791 8.97133762 8.21733607 7.4296875 8.1953125 C6.20378906 8.18177734 6.20378906 8.18177734 4.953125 8.16796875 C4.01339844 8.15056641 4.01339844 8.15056641 3.0546875 8.1328125 C3.3846875 10.7728125 3.7146875 13.4128125 4.0546875 16.1328125 C8.0146875 16.1328125 11.9746875 16.1328125 16.0546875 16.1328125 C16.0546875 18.4428125 16.0546875 20.7528125 16.0546875 23.1328125 C12.0946875 23.4628125 8.1346875 23.7928125 4.0546875 24.1328125 C3.7246875 27.1028125 3.3946875 30.0728125 3.0546875 33.1328125 C2.7246875 33.1328125 2.3946875 33.1328125 2.0546875 33.1328125 C2.0546875 29.1728125 2.0546875 25.2128125 2.0546875 21.1328125 C6.3446875 21.1328125 10.6346875 21.1328125 15.0546875 21.1328125 C15.0546875 19.8128125 15.0546875 18.4928125 15.0546875 17.1328125 C13.66443359 17.15021484 13.66443359 17.15021484 12.24609375 17.16796875 C11.04855469 17.17699219 9.85101563 17.18601562 8.6171875 17.1953125 C7.42222656 17.20691406 6.22726562 17.21851562 4.99609375 17.23046875 C2.0546875 17.1328125 2.0546875 17.1328125 1.0546875 16.1328125 C0.81588153 8.61042444 0.81588153 8.61042444 2.0546875 6.1328125 C1.3946875 6.1328125 0.7346875 6.1328125 0.0546875 6.1328125 C0.0546875 4.8128125 0.0546875 3.4928125 0.0546875 2.1328125 C-2.2553125 2.1328125 -4.5653125 2.1328125 -6.9453125 2.1328125 C-7.2753125 3.1228125 -7.6053125 4.1128125 -7.9453125 5.1328125 C-8.2753125 3.8128125 -8.6053125 2.4928125 -8.9453125 1.1328125 C-5.727246 0.06012367 -3.38237336 0.00357491 0 0 Z " fill="#AEDB35" transform="translate(349.9453125,21.8671875)"/>
<path d="M0 0 C2.64 0 5.28 0 8 0 C8 2.64 8 5.28 8 8 C10.31 8 12.62 8 15 8 C17.02466227 12.32215137 19.02108881 16.65674695 21 21 C21.29342285 21.64066406 21.5868457 22.28132813 21.88916016 22.94140625 C22.74959938 24.83122284 23.59542145 26.72694192 24.4375 28.625 C24.95183594 29.77226563 25.46617187 30.91953125 25.99609375 32.1015625 C27 35 27 35 26 38 C12.65475011 38.70653534 -0.63576581 39.14849149 -14 39 C-14.23136637 33.4978184 -13.4350346 28.86146222 -12 23.5625 C-11.71382812 22.46518555 -11.71382812 22.46518555 -11.421875 21.34570312 C-10.95549597 19.56180334 -10.47881722 17.78060155 -10 16 C-9.67 16 -9.34 16 -9 16 C-9.11853752 17.43804732 -9.24537135 18.87541 -9.375 20.3125 C-9.44460937 21.11300781 -9.51421875 21.91351563 -9.5859375 22.73828125 C-10.19313884 27.52142385 -11.13749858 32.25624222 -12 37 C5.325 36.505 5.325 36.505 23 36 C20.52432753 28.57298258 17.75827464 21.33275436 14.76953125 14.1015625 C14 12 14 12 14 10 C3.11 10.495 3.11 10.495 -8 11 C-7.67 10.01 -7.34 9.02 -7 8 C-4.69 8 -2.38 8 0 8 C0 5.36 0 2.72 0 0 Z M3 3 C3 4.98 3 6.96 3 9 C3.33 9 3.66 9 4 9 C4 7.02 4 5.04 4 3 C3.67 3 3.34 3 3 3 Z " fill="#A8CE4E" transform="translate(159,23)"/>
<path d="M0 0 C3.70920229 0.08129882 7.41681099 0.19410601 11.125 0.3125 C12.17171875 0.33505859 13.2184375 0.35761719 14.296875 0.38085938 C19.87767497 0.57512773 24.21359495 0.80108596 29 4 C31.62998478 7.34725336 31.43342998 10.8824152 31 15 C29 17.9375 29 17.9375 27 20 C26.34 19.67 25.68 19.34 25 19 C25 16 25 16 27 13.8125 C27.99 12.9153125 27.99 12.9153125 29 12 C28.34 10.68 27.68 9.36 27 8 C26.82984375 8.55429687 26.6596875 9.10859375 26.484375 9.6796875 C24.52673044 15.53179516 24.52673044 15.53179516 22.3125 17.5 C18.79814561 18.25986041 15.59624208 18.17686436 12 18 C10.36090985 16.36090985 10.56376919 14.37663301 10.3125 12.125 C10.20550781 11.24070312 10.09851563 10.35640625 9.98828125 9.4453125 C10 7 10 7 12 4 C9.36 4 6.72 4 4 4 C3.67 4.99 3.34 5.98 3 7 C2.01 6.67 1.02 6.34 0 6 C0 4.02 0 2.04 0 0 Z M13 7 C11.79438816 7.98267859 11.79438816 7.98267859 11.90234375 9.84765625 C11.91394531 10.57855469 11.92554688 11.30945313 11.9375 12.0625 C11.958125 13.361875 11.97875 14.66125 12 16 C14.95547533 16.84442152 16.7385388 17.0653653 19.75 16.3125 C22.12077191 15.21003905 22.12077191 15.21003905 22.9375 13.0625 C23.20896722 10.68549908 23.20896722 10.68549908 21 8 C18.30981684 7.22980441 15.81868476 7.17896411 13 7 Z " fill="#99D328" transform="translate(190,22)"/>
<path d="M0 0 C0.33 0 0.66 0 1 0 C1 8.91 1 17.82 1 27 C-0.32 27.33 -1.64 27.66 -3 28 C-3 28.99 -3 29.98 -3 31 C3.27 30.67 9.54 30.34 16 30 C15.67 29.01 15.34 28.02 15 27 C15.66 26.443125 16.32 25.88625 17 25.3125 C19.23612447 23.16508496 19.23612447 23.16508496 19.3125 20.3125 C19.24344314 18.04142874 19.24344314 18.04142874 18 17 C16.31816052 16.76712992 14.6287584 16.58735834 12.9375 16.4375 C12.01839844 16.35371094 11.09929687 16.26992188 10.15234375 16.18359375 C9.08693359 16.09271484 9.08693359 16.09271484 8 16 C8 18.97 8 21.94 8 25 C7.67 25 7.34 25 7 25 C7 21.37 7 17.74 7 14 C11.62 14 16.24 14 21 14 C23 18 23 18 22.625 20.25 C22.315625 21.11625 22.315625 21.11625 22 22 C24.29013653 18.5647952 24.17842973 17.014669 24 13 C26.83689811 14.64723116 27.86375715 15.6003543 28.9375 18.75 C29.01861498 22.96797909 28.12703334 25.36345913 26 29 C20.37836969 33.05954668 14.24787313 32.33961546 7.625 32.1875 C5.94857422 32.16719727 5.94857422 32.16719727 4.23828125 32.14648438 C1.49168789 32.11127164 -1.25390289 32.06202096 -4 32 C-4 30.35 -4 28.7 -4 27 C-2.68 26.67 -1.36 26.34 0 26 C0 17.42 0 8.84 0 0 Z " fill="#99D130" transform="translate(194,29)"/>
<path d="M0 0 C0.8247583 -0.00451172 1.6495166 -0.00902344 2.49926758 -0.01367188 C3.28325928 -0.01173828 4.06725098 -0.00980469 4.875 -0.0078125 C5.57367188 -0.00668457 6.27234375 -0.00555664 6.9921875 -0.00439453 C9.09771604 0.13129736 10.97300987 0.55292067 13 1.125 C13.02688151 2.77074566 13.04634123 4.41661413 13.0625 6.0625 C13.07410156 6.97902344 13.08570313 7.89554688 13.09765625 8.83984375 C13 11.125 13 11.125 12 12.125 C10.00041636 12.16580783 7.99954746 12.16754356 6 12.125 C5.34 10.805 4.68 9.485 4 8.125 C2.02 8.125 0.04 8.125 -2 8.125 C-2.66 6.805 -3.32 5.485 -4 4.125 C-6.97 4.125 -9.94 4.125 -13 4.125 C-13 3.465 -13 2.805 -13 2.125 C-15.64 2.125 -18.28 2.125 -21 2.125 C-21 5.095 -21 8.065 -21 11.125 C-19.35 11.125 -17.7 11.125 -16 11.125 C-15.67 10.135 -15.34 9.145 -15 8.125 C-15 9.445 -15 10.765 -15 12.125 C-17.31 12.125 -19.62 12.125 -22 12.125 C-22 8.495 -22 4.865 -22 1.125 C-14.64842794 0.36120031 -7.38528628 0.01693064 0 0 Z " fill="#A9DA2C" transform="translate(134,21.875)"/>
<path d="M0 0 C0.33 0 0.66 0 1 0 C1 7.26 1 14.52 1 22 C1.66 22 2.32 22 3 22 C1.125 26.75 1.125 26.75 0 29 C6.435 28.505 6.435 28.505 13 28 C11.68 27.01 10.36 26.02 9 25 C12.3 25 15.6 25 19 25 C19.33 23.35 19.66 21.7 20 20 C21.98 20 23.96 20 26 20 C26 23.63 26 27.26 26 31 C16.1 31 6.2 31 -4 31 C-4 29.35 -4 27.7 -4 26 C-2.68 25.67 -1.36 25.34 0 25 C0 16.75 0 8.5 0 0 Z " fill="#97D224" transform="translate(345,30)"/>
<path d="M0 0 C2.53541298 0.09086451 5.03554784 0.2370945 7.5625 0.4375 C8.62887695 0.51581055 8.62887695 0.51581055 9.71679688 0.59570312 C11.47821999 0.72574107 13.23916173 0.86226897 15 1 C15 2.65 15 4.3 15 6 C14.01 6.33 13.02 6.66 12 7 C12.33 5.68 12.66 4.36 13 3 C9.95613276 2.91773332 7.92824652 3.02391783 5 4 C5 6.64 5 9.28 5 12 C5.66 12.33 6.32 12.66 7 13 C6.34 13 5.68 13 5 13 C5.33 19.93 5.66 26.86 6 34 C4.68 34.66 3.36 35.32 2 36 C4.95664519 37.4783226 7.74229737 37.06032783 11 37 C11 35.68 11 34.36 11 33 C12.32 33.33 13.64 33.66 15 34 C15 35.65 15 37.3 15 39 C7.08 39.495 7.08 39.495 -1 40 C-1 38.02 -1 36.04 -1 34 C0.98 33.505 0.98 33.505 3 33 C3 24.42 3 15.84 3 7 C1.68 6.67 0.36 6.34 -1 6 C-1.042721 4.33388095 -1.04063832 2.66617115 -1 1 C-0.67 0.67 -0.34 0.34 0 0 Z " fill="#A0D62B" transform="translate(302,22)"/>
<path d="M0 0 C0.66 1.32 1.32 2.64 2 4 C2.52722656 4.4228125 3.05445313 4.845625 3.59765625 5.28125 C6.12175887 8.37485767 5.4357877 12.70208856 5.43945312 16.55078125 C5.46532277 18.78842163 5.46532277 18.78842163 6 22 C7.94207528 23.79744642 7.94207528 23.79744642 10 25 C10 25.99 10 26.98 10 28 C5.05 28.33 0.1 28.66 -5 29 C-4.67 27.35 -4.34 25.7 -4 24 C-2.68 23.67 -1.36 23.34 0 23 C0 15.41 0 7.82 0 0 Z " fill="#92DB1C" transform="translate(21,33)"/>
<path d="M0 0 C3.5625 1.625 3.5625 1.625 5.5625 3.625 C5.7578125 5.7890625 5.7578125 5.7890625 5.6875 8.25 C5.66945313 9.06726562 5.65140625 9.88453125 5.6328125 10.7265625 C5.60960938 11.35304688 5.58640625 11.97953125 5.5625 12.625 C3.2525 12.625 0.9425 12.625 -1.4375 12.625 C-1.56125 11.820625 -1.685 11.01625 -1.8125 10.1875 C-2.01875 9.341875 -2.225 8.49625 -2.4375 7.625 C-5.42747825 6.13001087 -8.13792775 6.50922554 -11.4375 6.625 C-12.4275 6.955 -13.4175 7.285 -14.4375 7.625 C-13.7775 6.305 -13.1175 4.985 -12.4375 3.625 C-8.8075 3.955 -5.1775 4.285 -1.4375 4.625 C-0.7775 6.605 -0.1175 8.585 0.5625 10.625 C1.5525 10.625 2.5425 10.625 3.5625 10.625 C3.10336322 7.13900668 3.10336322 7.13900668 1.5625 3.625 C-3.6626587 1.3574783 -8.03846388 1.28913494 -13.5625 2.0625 C-16.89797877 3.8752602 -17.08464724 4.53804961 -18.25 8 C-18.67335399 9.53433749 -19.07014627 11.0763001 -19.4375 12.625 C-19.62699219 13.38039063 -19.81648438 14.13578125 -20.01171875 14.9140625 C-20.15222656 15.47867188 -20.29273437 16.04328125 -20.4375 16.625 C-22.80790308 14.25459692 -22.78215793 13.56197247 -22.875 10.3125 C-22.79722615 6.59132052 -22.5618621 5.78736164 -20.1875 2.6875 C-13.71099813 -2.1698764 -7.64660482 -2.74386366 0 0 Z " fill="#9AD12F" transform="translate(102.4375,23.375)"/>
<path d="M0 0 C0.33 0 0.66 0 1 0 C1 8.91 1 17.82 1 27 C0.01 27 -0.98 27 -2 27 C-2 27.99 -2 28.98 -2 30 C-1.01 30 -0.02 30 1 30 C1.28875 28.9275 1.5775 27.855 1.875 26.75 C2.72820109 23.90599636 3.5636503 21.56491017 5 19 C7.1519437 22.22791555 7.20086443 23.28400809 7 27 C8.28426897 25.94049948 8.28426897 25.94049948 8.11352539 23.49975586 C8.10828857 22.41573486 8.10305176 21.33171387 8.09765625 20.21484375 C8.09443359 19.04501953 8.09121094 17.87519531 8.08789062 16.66992188 C8.07951172 15.43822266 8.07113281 14.20652344 8.0625 12.9375 C8.05798828 11.70193359 8.05347656 10.46636719 8.04882812 9.19335938 C8.03699608 6.12885883 8.02051173 3.06445279 8 0 C8.33 0 8.66 0 9 0 C9 8.25 9 16.5 9 25 C10.32 25.33 11.64 25.66 13 26 C13.5625 27.9375 13.5625 27.9375 14 30 C11.94057529 32.05942471 7.84036265 31.45906816 5 31.625 C3.87464844 31.70234375 3.87464844 31.70234375 2.7265625 31.78125 C0.81990351 31.89826517 -1.09030922 31.9539329 -3 32 C-4 31 -4 31 -4.0625 28.4375 C-4.041875 27.633125 -4.02125 26.82875 -4 26 C-2.68 25.67 -1.36 25.34 0 25 C0 16.75 0 8.5 0 0 Z " fill="#9BD032" transform="translate(389,30)"/>
<path d="M0 0 C2.64 0 5.28 0 8 0 C8 0.66 8 1.32 8 2 C8.99 1.67 9.98 1.34 11 1 C13.33299825 0.96045766 15.66708189 0.95598268 18 1 C18.19551338 2.60320974 18.38111983 4.20762986 18.5625 5.8125 C18.66691406 6.70582031 18.77132812 7.59914063 18.87890625 8.51953125 C19 11 19 11 18 14 C16.68 14 15.36 14 14 14 C14 11.36 14 8.72 14 6 C11.03 6 8.06 6 5 6 C5 6.99 5 7.98 5 9 C3.35 9 1.7 9 0 9 C0 6.03 0 3.06 0 0 Z " fill="#93DA1F" transform="translate(113,24)"/>
<path d="M0 0 C1.65 0.33 3.3 0.66 5 1 C6.07945291 6.31946613 7.03471425 11.65875218 8 17 C4.04 17.33 0.08 17.66 -4 18 C-4 17.01 -4 16.02 -4 15 C-3.01 14.34 -2.02 13.68 -1 13 C-0.41407366 9.88389446 -0.41407366 9.88389446 -0.3125 6.375 C-0.21388672 4.59222656 -0.21388672 4.59222656 -0.11328125 2.7734375 C-0.05720703 1.40058594 -0.05720703 1.40058594 0 0 Z " fill="#93D91F" transform="translate(127,42)"/>
<path d="M0 0 C8.48192771 1.15662651 8.48192771 1.15662651 11.75 5.125 C13.42728337 8.98275174 13.2127899 11.81513202 13 16 C11.35 16.33 9.7 16.66 8 17 C8 17.66 8 18.32 8 19 C6.68 19 5.36 19 4 19 C4 17.68 4 16.36 4 15 C4.66 14.67 5.32 14.34 6 14 C6 11.36 6 8.72 6 6 C5.38125 5.7525 4.7625 5.505 4.125 5.25 C1.64931313 3.79371361 1.04874998 2.62187494 0 0 Z " fill="#93D91E" transform="translate(282,40)"/>
<path d="M0 0 C3.3 0.66 6.6 1.32 10 2 C10 3.65 10 5.3 10 7 C8.68 7.33 7.36 7.66 6 8 C6 16.58 6 25.16 6 34 C7.32 34.33 8.64 34.66 10 35 C10 36.65 10 38.3 10 40 C3.87618787 33.87618787 3.87618787 33.87618787 3.86132812 28.77929688 C3.86583984 28.06837891 3.87035156 27.35746094 3.875 26.625 C3.87693359 25.90634766 3.87886719 25.18769531 3.88085938 24.44726562 C3.92784485 18.59496384 4.31027137 12.81342699 5 7 C5.99 6.67 6.98 6.34 8 6 C8 5.34 8 4.68 8 4 C3.89100419 5.12795963 -0.07561214 6.33510818 -4 8 C-4.33 7.34 -4.66 6.68 -5 6 C-4.67 5.34 -4.34 4.68 -4 4 C-3.34 4 -2.68 4 -2 4 C-1.34 2.68 -0.68 1.36 0 0 Z " fill="#8EB62F" transform="translate(22,21)"/>
<path d="M0 0 C1.77675858 2.48275536 1.37700041 4.68874378 1.1796875 7.6484375 C0.1896875 7.6484375 -0.8003125 7.6484375 -1.8203125 7.6484375 C-2.4803125 5.6684375 -3.1403125 3.6884375 -3.8203125 1.6484375 C-5.59038964 1.56729644 -7.36153348 1.50918245 -9.1328125 1.4609375 C-10.11894531 1.42613281 -11.10507813 1.39132813 -12.12109375 1.35546875 C-14.83065616 1.41951735 -14.83065616 1.41951735 -16.6328125 2.9921875 C-18.16930877 5.13519545 -18.47071445 7.0614119 -18.8203125 9.6484375 C-19.4803125 9.6484375 -20.1403125 9.6484375 -20.8203125 9.6484375 C-21.1503125 10.6384375 -21.4803125 11.6284375 -21.8203125 12.6484375 C-23.02001489 9.21399535 -22.67367154 7.34376576 -21.2578125 4.0234375 C-19.7904804 1.00945806 -19.13668274 -0.15093747 -16.2578125 -1.9765625 C-11.07942291 -2.54147773 -4.37409562 -3.24771906 0 0 Z " fill="#92D91E" transform="translate(104.8203125,26.3515625)"/>
<path d="M0 0 C4.62 0 9.24 0 14 0 C14.33 3.3 14.66 6.6 15 10 C12.69 10 10.38 10 8 10 C8 8.35 8 6.7 8 5 C4.7 5 1.4 5 -2 5 C-1.34 3.68 -0.68 2.36 0 1 C0 0.67 0 0.34 0 0 Z " fill="#94D821" transform="translate(356,24)"/>
<path d="M0 0 C7.26 0.33 14.52 0.66 22 1 C22 1.33 22 1.66 22 2 C20.02 2 18.04 2 16 2 C16 2.99 16 3.98 16 5 C17.32 5 18.64 5 20 5 C20 5.66 20 6.32 20 7 C17.69 7.33 15.38 7.66 13 8 C12.67 10.64 12.34 13.28 12 16 C14.64 16.33 17.28 16.66 20 17 C20 17.33 20 17.66 20 18 C13.84765625 18.09765625 13.84765625 18.09765625 12 18 C10.36090985 16.36090985 10.56376919 14.37663301 10.3125 12.125 C10.20550781 11.24070312 10.09851563 10.35640625 9.98828125 9.4453125 C10 7 10 7 12 4 C9.36 4 6.72 4 4 4 C3.67 4.99 3.34 5.98 3 7 C2.01 6.67 1.02 6.34 0 6 C0 4.02 0 2.04 0 0 Z " fill="#A5D82C" transform="translate(190,22)"/>
<path d="M0 0 C0.33 0 0.66 0 1 0 C0.88146248 1.43804732 0.75462865 2.87541 0.625 4.3125 C0.55539063 5.11300781 0.48578125 5.91351563 0.4140625 6.73828125 C-0.19313884 11.52142385 -1.13749858 16.25624222 -2 21 C10.87 20.67 23.74 20.34 37 20 C36.67 20.66 36.34 21.32 36 22 C22.65475011 22.70653534 9.36423419 23.14849149 -4 23 C-4.23136637 17.4978184 -3.4350346 12.86146222 -2 7.5625 C-1.80921875 6.83095703 -1.6184375 6.09941406 -1.421875 5.34570312 C-0.95549597 3.56180334 -0.47881722 1.78060155 0 0 Z " fill="#AAC95C" transform="translate(149,39)"/>
<path d="M0 0 C5.61 0 11.22 0 17 0 C17 1.65 17 3.3 17 5 C15.68 5.33 14.36 5.66 13 6 C13 16.56 13 27.12 13 38 C12.67 38 12.34 38 12 38 C10.53439182 27.06028181 10.90529577 16.01045894 11 5 C12.32 4.67 13.64 4.34 15 4 C15 3.01 15 2.02 15 1 C10.38 1 5.76 1 1 1 C1.33 2.32 1.66 3.64 2 5 C1.34 5 0.68 5 0 5 C0 3.35 0 1.7 0 0 Z " fill="#A0CD42" transform="translate(58,23)"/>
<path d="M0 0 C1.66611905 -0.042721 3.33382885 -0.04063832 5 0 C6.96822886 1.96822886 6.66248381 5.34808709 7 8 C7.86625 8.2165625 7.86625 8.2165625 8.75 8.4375 C11.875 9.21875 11.875 9.21875 15 10 C15 10.99 15 11.98 15 13 C13.37419034 12.88601335 11.74932843 12.75844341 10.125 12.625 C9.22007812 12.55539063 8.31515625 12.48578125 7.3828125 12.4140625 C5 12 5 12 3 10 C2.01 9.67 1.02 9.34 0 9 C0 6.03 0 3.06 0 0 Z " fill="#9CDA20" transform="translate(269,47)"/>
<path d="M0 0 C2.30874711 2.16614803 4.05290181 4.39206608 5.75 7.0625 C6.19859375 7.75472656 6.6471875 8.44695313 7.109375 9.16015625 C7.40328125 9.76730469 7.6971875 10.37445313 8 11 C7.67 11.66 7.34 12.32 7 13 C5 12 5 12 4 9 C3.34 9 2.68 9 2 9 C2.42925781 9.83144531 2.42925781 9.83144531 2.8671875 10.6796875 C4.0618682 13.12672314 5.10723436 15.59943341 6.125 18.125 C6.47820313 18.99382813 6.83140625 19.86265625 7.1953125 20.7578125 C8 23 8 23 8 25 C8.66 25 9.32 25 10 25 C9.67 26.32 9.34 27.64 9 29 C7.12164422 26.11919869 5.27687815 23.21831421 3.4375 20.3125 C2.90447266 19.49587891 2.37144531 18.67925781 1.82226562 17.83789062 C1.32275391 17.04189453 0.82324219 16.24589844 0.30859375 15.42578125 C-0.39052124 14.33390503 -0.39052124 14.33390503 -1.10375977 13.2199707 C-2.24072238 10.40373505 -1.82834136 8.87731798 -1 6 C-0.22817341 3.03466042 -0.22817341 3.03466042 0 0 Z " fill="#96CE28" transform="translate(51,29)"/>
<path d="M0 0 C2.31 0.66 4.62 1.32 7 2 C7 2.99 7 3.98 7 5 C7.66 5 8.32 5 9 5 C9.33 7.64 9.66 10.28 10 13 C8.68 13 7.36 13 6 13 C5.87625 12.195625 5.7525 11.39125 5.625 10.5625 C5.41875 9.716875 5.2125 8.87125 5 8 C2.70370006 6.85185003 0.92301914 6.69230191 -1.625 6.4375 C-2.44226563 6.35371094 -3.25953125 6.26992188 -4.1015625 6.18359375 C-4.72804688 6.12300781 -5.35453125 6.06242187 -6 6 C-6 5.34 -6 4.68 -6 4 C-4.02 3.34 -2.04 2.68 0 2 C0 1.34 0 0.68 0 0 Z " fill="#97D823" transform="translate(285,22)"/>
<path d="M0 0 C0.33 0 0.66 0 1 0 C1 8.58 1 17.16 1 26 C0.01 26.33 -0.98 26.66 -2 27 C-2 27.99 -2 28.98 -2 30 C-1.01 29.67 -0.02 29.34 1 29 C2.56118428 28.93259135 4.1250252 28.91485544 5.6875 28.9375 C6.89986328 28.95103516 6.89986328 28.95103516 8.13671875 28.96484375 C8.75160156 28.97644531 9.36648437 28.98804687 10 29 C9.67 27.68 9.34 26.36 9 25 C10.32 25.33 11.64 25.66 13 26 C13 27.65 13 29.3 13 31 C7.39 31 1.78 31 -4 31 C-4 29.35 -4 27.7 -4 26 C-2.68 25.67 -1.36 25.34 0 25 C0 16.75 0 8.5 0 0 Z " fill="#9DC944" transform="translate(125,30)"/>
<path d="M0 0 C1.98 0 3.96 0 6 0 C6 3.63 6 7.26 6 11 C-3.9 11 -13.8 11 -24 11 C-24 9.35 -24 7.7 -24 6 C-23.34 6 -22.68 6 -22 6 C-22 7.32 -22 8.64 -22 10 C-13.09 9.67 -4.18 9.34 5 9 C4.34 7.35 3.68 5.7 3 4 C2.01 4.495 2.01 4.495 1 5 C0.34 4.67 -0.32 4.34 -1 4 C-0.67 2.68 -0.34 1.36 0 0 Z " fill="#9FCF37" transform="translate(365,50)"/>
<path d="M0 0 C1.5625 1.1875 1.5625 1.1875 3 3 C2.8125 5.625 2.8125 5.625 2 8 C-0.52475462 9.26237731 -2.31200466 9.09856404 -5.125 9.0625 C-6.03507813 9.05347656 -6.94515625 9.04445313 -7.8828125 9.03515625 C-8.58148438 9.02355469 -9.28015625 9.01195312 -10 9 C-9.67 7.68 -9.34 6.36 -9 5 C-7.35 4.67 -5.7 4.34 -4 4 C-4 3.34 -4 2.68 -4 2 C-3.01 2.33 -2.02 2.66 -1 3 C-0.67 2.01 -0.34 1.02 0 0 Z " fill="#94D823" transform="translate(252,41)"/>
<path d="M0 0 C0.66 0.33 1.32 0.66 2 1 C3.29992018 9.65859873 3.17044834 18.33868232 2 27 C0.68 27.33 -0.64 27.66 -2 28 C-2.33 29.32 -2.66 30.64 -3 32 C-3.33 32 -3.66 32 -4 32 C-4 30.35 -4 28.7 -4 27 C-2.68 26.67 -1.36 26.34 0 26 C0 17.42 0 8.84 0 0 Z " fill="#9DCA3D" transform="translate(19,29)"/>
<path d="M0 0 C4.12491697 2.11820061 5.68071095 4.06729248 8 8 C10.06700655 9.32793606 10.06700655 9.32793606 12 10 C12 11.65 12 13.3 12 15 C6.72 15 1.44 15 -4 15 C-4 13.35 -4 11.7 -4 10 C-3.34 10 -2.68 10 -2 10 C-2 11.32 -2 12.64 -2 14 C1.96 14 5.92 14 10 14 C10 13.34 10 12.68 10 12 C9.01 12 8.02 12 7 12 C6.67 10.35 6.34 8.7 6 7 C5.38125 6.95875 4.7625 6.9175 4.125 6.875 C3.42375 6.58625 2.7225 6.2975 2 6 C0.75 2.9375 0.75 2.9375 0 0 Z " fill="#9DCC33" transform="translate(325,46)"/>
<path d="M0 0 C4.875 1.875 4.875 1.875 6 3 C6.07179964 4.51928038 6.08392007 6.04167482 6.0625 7.5625 C6.05347656 8.38878906 6.04445313 9.21507812 6.03515625 10.06640625 C6.02355469 10.70449219 6.01195313 11.34257813 6 12 C3.69 12 1.38 12 -1 12 C-1.12375 11.195625 -1.2475 10.39125 -1.375 9.5625 C-1.58125 8.716875 -1.7875 7.87125 -2 7 C-4.98997825 5.50501087 -7.70042775 5.88422554 -11 6 C-11.99 6.33 -12.98 6.66 -14 7 C-13.34 5.68 -12.68 4.36 -12 3 C-8.37 3.33 -4.74 3.66 -1 4 C-0.34 5.98 0.32 7.96 1 10 C1.99 10 2.98 10 4 10 C2.99806563 6.20696275 2.18975773 3.28463659 0 0 Z " fill="#9CCA3D" transform="translate(102,24)"/>
<path d="M0 0 C2.625 -0.1875 2.625 -0.1875 5 0 C6.4783226 2.95664519 6.06032783 5.74229737 6 9 C1.25 10.125 1.25 10.125 -1 9 C-1.75 6.125 -1.75 6.125 -2 3 C-1.34 2.01 -0.68 1.02 0 0 Z " fill="#A3DA23" transform="translate(81,47)"/>
<path d="M0 0 C2.4375 1.1875 2.4375 1.1875 5 3 C5.8125 5.6875 5.8125 5.6875 6 8 C6.99 8 7.98 8 9 8 C9 8.66 9 9.32 9 10 C5.37 10 1.74 10 -2 10 C-2.1953125 3.9453125 -2.1953125 3.9453125 -2 2 C-1.34 1.34 -0.68 0.68 0 0 Z " fill="#92DA1F" transform="translate(326,50)"/>
<path d="M0 0 C1.32 0 2.64 0 4 0 C4 1.65 4 3.3 4 5 C5.32 5 6.64 5 8 5 C8.33 6.98 8.66 8.96 9 11 C5.37673261 12.2077558 4.35853631 11.54311128 1 10 C1.020625 9.278125 1.04125 8.55625 1.0625 7.8125 C1.00179441 5.08074862 0.60741465 2.65743909 0 0 Z " fill="#95DA1D" transform="translate(270,30)"/>
<path d="M0 0 C1.66611905 -0.042721 3.33382885 -0.04063832 5 0 C6 1 6 1 6.0625 4.5625 C6.041875 5.696875 6.02125 6.83125 6 8 C8.31 8 10.62 8 13 8 C13 8.33 13 8.66 13 9 C8.05 9 3.1 9 -2 9 C-1.34 8.01 -0.68 7.02 0 6 C0.16699232 2.87478167 0.16699232 2.87478167 0 0 Z M2 2 C2 3.98 2 5.96 2 8 C2.33 8 2.66 8 3 8 C3 6.02 3 4.04 3 2 C2.67 2 2.34 2 2 2 Z " fill="#A6DB3F" transform="translate(160,24)"/>
<path d="M0 0 C1.32 0 2.64 0 4 0 C3.95875 0.9075 3.9175 1.815 3.875 2.75 C3.75595717 5.88418111 3.75595717 5.88418111 5.03125 7.90625 C6.22344611 10.48293192 6.03434789 11.96643436 5.625 14.75 C5.51414062 15.54921875 5.40328125 16.3484375 5.2890625 17.171875 C5.19367188 17.77515625 5.09828125 18.3784375 5 19 C3.35 18.67 1.7 18.34 0 18 C-0.33 16.68 -0.66 15.36 -1 14 C-0.34 14.66 0.32 15.32 1 16 C1.33 11.05 1.66 6.1 2 1 C1.34 0.67 0.68 0.34 0 0 Z " fill="#95CC2F" transform="translate(60,28)"/>
<path d="M0 0 C2.49361571 1.20381448 4.68143083 2.45428722 7 4 C7 4.99 7 5.98 7 7 C2.05 7.33 -2.9 7.66 -8 8 C-8 7.34 -8 6.68 -8 6 C-5.36 5.01 -2.72 4.02 0 3 C0 2.01 0 1.02 0 0 Z " fill="#98D728" transform="translate(24,54)"/>
<path d="M0 0 C0.33 0 0.66 0 1 0 C1 2.97 1 5.94 1 9 C4.37161357 7.87612881 4.72035171 7.29600597 6.5625 4.4375 C7.81640625 2.49609375 7.81640625 2.49609375 9 1 C9.66 1 10.32 1 11 1 C8.5 8.5 8.5 8.5 6 11 C6 11.66 6 12.32 6 13 C1.125 11.125 1.125 11.125 0 10 C-0.07205511 8.31391034 -0.08386068 6.62499341 -0.0625 4.9375 C-0.05347656 4.01839844 -0.04445313 3.09929688 -0.03515625 2.15234375 C-0.02355469 1.44207031 -0.01195312 0.73179688 0 0 Z " fill="#9AD230" transform="translate(312,29)"/>
<path d="M0 0 C1.93627769 -0.10807131 3.87427756 -0.1856225 5.8125 -0.25 C7.43091797 -0.31960937 7.43091797 -0.31960937 9.08203125 -0.390625 C12 0 12 0 13.88671875 2.015625 C14.25410156 2.67046875 14.62148438 3.3253125 15 4 C14.67 4.66 14.34 5.32 14 6 C13.01 5.67 12.02 5.34 11 5 C11 4.01 11 3.02 11 2 C8.36 2.33 5.72 2.66 3 3 C3.33 3.99 3.66 4.98 4 6 C2.68 5.67 1.36 5.34 0 5 C0 3.35 0 1.7 0 0 Z " fill="#9DD032" transform="translate(36,23)"/>
<path d="M0 0 C2.97 0 5.94 0 9 0 C9.02688151 1.64574566 9.04634123 3.29161413 9.0625 4.9375 C9.07410156 5.85402344 9.08570313 6.77054688 9.09765625 7.71484375 C9 10 9 10 8 11 C6.00041636 11.04080783 3.99954746 11.04254356 2 11 C2 9.35 2 7.7 2 6 C2.66 6 3.32 6 4 6 C4 6.99 4 7.98 4 9 C4.99 9 5.98 9 7 9 C7 6.36 7 3.72 7 1 C4.69 1 2.38 1 0 1 C0 0.67 0 0.34 0 0 Z " fill="#9ECC41" transform="translate(138,23)"/>
<path d="M0 0 C0.639375 0.391875 1.27875 0.78375 1.9375 1.1875 C2.9275 1.5175 3.9175 1.8475 4.9375 2.1875 C5.5975 2.5175 6.2575 2.8475 6.9375 3.1875 C6.9375 5.8275 6.9375 8.4675 6.9375 11.1875 C6.7003125 10.57132813 6.463125 9.95515625 6.21875 9.3203125 C4.61122789 6.64437631 3.31593975 6.17462445 0.4375 5.0625 C-2.37055541 3.95933537 -3.90516036 3.34483964 -6.0625 1.1875 C-2.61364823 -1.029619 -2.61364823 -1.029619 0 0 Z " fill="#99D236" transform="translate(94.0625,41.8125)"/>
<path d="M0 0 C4.57379894 4.11641905 5.97611183 8.02731898 7 14 C7.66 14 8.32 14 9 14 C8.67 15.32 8.34 16.64 8 18 C6.46648472 15.56969216 4.94816498 13.13194897 3.4375 10.6875 C2.78104492 9.65206055 2.78104492 9.65206055 2.11132812 8.59570312 C1.70205078 7.92861328 1.29277344 7.26152344 0.87109375 6.57421875 C0.29766235 5.65515747 0.29766235 5.65515747 -0.28735352 4.7175293 C-1 3 -1 3 0 0 Z " fill="#97CD39" transform="translate(52,40)"/>
<path d="M0 0 C1.65087847 0.59024148 3.29562407 1.19766006 4.9375 1.8125 C6.31228516 2.31716797 6.31228516 2.31716797 7.71484375 2.83203125 C10 4 10 4 11 7 C8.61435923 6.42415568 6.33317216 5.77772405 4 5 C1.85744207 5.38932856 1.85744207 5.38932856 0 6 C0 5.34 0 4.68 0 4 C-0.99 3.67 -1.98 3.34 -3 3 C-2.01 2.01 -1.02 1.02 0 0 Z " fill="#94D91F" transform="translate(88,37)"/>
<path d="M0 0 C5.83430331 1.56344076 10.25171099 2.96323664 14 8 C15.02592643 11.35135966 15.35405863 13.10305148 14.0625 16.375 C13.711875 16.91125 13.36125 17.4475 13 18 C12.8046875 15.98177083 12.609375 13.96354167 12.4140625 11.9453125 C12.13625251 9.77331755 12.13625251 9.77331755 10 8 C10 7.01 10 6.02 10 5 C9.04287109 4.70996094 9.04287109 4.70996094 8.06640625 4.4140625 C6.82697266 4.02347656 6.82697266 4.02347656 5.5625 3.625 C4.73878906 3.36976562 3.91507812 3.11453125 3.06640625 2.8515625 C1 2 1 2 0 0 Z " fill="#9FC73B" transform="translate(282,38)"/>
<path d="M0 0 C1.32 0.33 2.64 0.66 4 1 C4 2.65 4 4.3 4 6 C4.66 6.33 5.32 6.66 6 7 C5.34 7 4.68 7 4 7 C3.67 13.6 3.34 20.2 3 27 C2.67 27 2.34 27 2 27 C2 18.42 2 9.84 2 1 C1.34 0.67 0.68 0.34 0 0 Z " fill="#9ED137" transform="translate(303,28)"/>
<path d="M0 0 C7.75 -0.125 7.75 -0.125 10 1 C10 2.98 10 4.96 10 7 C9.01 7 8.02 7 7 7 C6.67 6.01 6.34 5.02 6 4 C3.03 3.505 3.03 3.505 0 3 C0 2.01 0 1.02 0 0 Z " fill="#91DA1C" transform="translate(135,25)"/>
<path d="M0 0 C1.32 1.65 2.64 3.3 4 5 C2.3125 6.5625 2.3125 6.5625 0 8 C-2.75 7.6875 -2.75 7.6875 -5 7 C-4.1875 4.0625 -4.1875 4.0625 -3 1 C-2.01 0.67 -1.02 0.34 0 0 Z " fill="#92DA1C" transform="translate(233,52)"/>
<path d="M0 0 C0.5671875 0.15984375 1.134375 0.3196875 1.71875 0.484375 C1.71875 1.144375 1.71875 1.804375 1.71875 2.484375 C1.02007812 2.47277344 0.32140625 2.46117187 -0.3984375 2.44921875 C-1.30851562 2.44019531 -2.21859375 2.43117188 -3.15625 2.421875 C-4.06117187 2.41027344 -4.96609375 2.39867187 -5.8984375 2.38671875 C-8.2981085 2.32188243 -8.2981085 2.32188243 -10.28125 3.484375 C-11.95779729 3.20495045 -13.62733154 2.87609253 -15.28125 2.484375 C-11.17032506 -1.8052858 -5.43648222 -1.22879393 0 0 Z " fill="#A8D62F" transform="translate(100.28125,22.515625)"/>
<path d="M0 0 C2.3125 -0.1875 2.3125 -0.1875 5 0 C5.4125 0.4846875 5.825 0.969375 6.25 1.46875 C8.87539469 3.76597036 11.26270241 3.51795556 14.6875 3.6875 C15.86699219 3.75324219 17.04648438 3.81898437 18.26171875 3.88671875 C19.16535156 3.92410156 20.06898437 3.96148437 21 4 C16.31519534 6.79577052 12.18606299 6.01271151 7 5 C1.36263736 2.72527473 1.36263736 2.72527473 0 0 Z " fill="#97C634" transform="translate(80,56)"/>
<path d="M0 0 C0 3 0 3 -1 5 C2.63 5.33 6.26 5.66 10 6 C10.33 4.68 10.66 3.36 11 2 C11 3.65 11 5.3 11 7 C6.38 7 1.76 7 -3 7 C-3 5.35 -3 3.7 -3 2 C-2.01 1.34 -1.02 0.68 0 0 Z " fill="#9DC93A" transform="translate(229,54)"/>
<path d="M0 0 C0.66 0 1.32 0 2 0 C2 0.66 2 1.32 2 2 C2.99 2 3.98 2 5 2 C5 3.32 5 4.64 5 6 C2.5 8.25 2.5 8.25 0 10 C-0.19412181 8.52168779 -0.38012131 7.04230684 -0.5625 5.5625 C-0.66691406 4.73878906 -0.77132812 3.91507813 -0.87890625 3.06640625 C-0.91886719 2.38449219 -0.95882812 1.70257813 -1 1 C-0.67 0.67 -0.34 0.34 0 0 Z " fill="#91DA1F" transform="translate(101,44)"/>
<path d="M0 0 C1.98 0 3.96 0 6 0 C6.33 3.3 6.66 6.6 7 10 C4.69 10 2.38 10 0 10 C0.33 8.68 0.66 7.36 1 6 C2.98 6.495 2.98 6.495 5 7 C5 5.02 5 3.04 5 1 C3.35 1 1.7 1 0 1 C0 0.67 0 0.34 0 0 Z " fill="#9CD030" transform="translate(364,24)"/>
<path d="M0 0 C2 2 2 2 2.375 5.3125 C1.94805086 9.51083317 0.88994071 11.01974864 -2 14 C-2.66 13.67 -3.32 13.34 -4 13 C-4 12.01 -4 11.02 -4 10 C-3.01 9.1028125 -3.01 9.1028125 -2 8.1875 C0.32869198 6.0915944 0.32869198 6.0915944 0.25 2.75 C0.1675 1.8425 0.085 0.935 0 0 Z " fill="#9DD133" transform="translate(219,28)"/>
<path d="M0 0 C-0.33 1.32 -0.66 2.64 -1 4 C-0.34 4.33 0.32 4.66 1 5 C-0.32 5.33 -1.64 5.66 -3 6 C-3.33 4.68 -3.66 3.36 -4 2 C-7.96 2 -11.92 2 -16 2 C-16 1.34 -16 0.68 -16 0 C-13.7089095 -0.19441368 -11.41709663 -0.38033135 -9.125 -0.5625 C-7.21074219 -0.71912109 -7.21074219 -0.71912109 -5.2578125 -0.87890625 C-2 -1 -2 -1 0 0 Z " fill="#98CF37" transform="translate(254,50)"/>
<path d="M0 0 C0.66 0.99 1.32 1.98 2 3 C0.9375 4.5 0.9375 4.5 -1 6 C-4.6875 6.1875 -4.6875 6.1875 -8 6 C-4.55384615 1.2 -4.55384615 1.2 -1.75 0.1875 C-1.1725 0.125625 -0.595 0.06375 0 0 Z " fill="#92DA1B" transform="translate(368,53)"/>
<path d="M0 0 C0.33 0 0.66 0 1 0 C1 2.97 1 5.94 1 9 C-1.31 9 -3.62 9 -6 9 C-5.67 7.68 -5.34 6.36 -5 5 C-3.68 5.66 -2.36 6.32 -1 7 C-0.67 4.69 -0.34 2.38 0 0 Z " fill="#9CCD34" transform="translate(410,25)"/>
<path d="M0 0 C1.79260132 0.05995322 3.58425795 0.1487241 5.375 0.25 C6.87160156 0.31960937 6.87160156 0.31960937 8.3984375 0.390625 C11 1 11 1 12.4140625 2.859375 C13 5 13 5 12 8 C11.71125 7.360625 11.4225 6.72125 11.125 6.0625 C10.17176549 3.84793921 10.17176549 3.84793921 8 3 C4.32670036 2.86642547 1.50147041 2.8328432 -2 4 C-1.34 2.68 -0.68 1.36 0 0 Z " fill="#99CE32" transform="translate(90,27)"/>
<path d="M0 0 C0.66 0.33 1.32 0.66 2 1 C2 4 2 4 0 6.1875 C-0.66 6.785625 -1.32 7.38375 -2 8 C-2.99 7.67 -3.98 7.34 -5 7 C-4.67 6.01 -4.34 5.02 -4 4 C-3.34 4 -2.68 4 -2 4 C-1.34 2.68 -0.68 1.36 0 0 Z " fill="#6D8A1B" transform="translate(22,21)"/>
<path d="M0 0 C1.26403575 3.59566927 0.73990566 6.05299344 -0.25 9.6875 C-0.62898437 11.14736328 -0.62898437 11.14736328 -1.015625 12.63671875 C-1.34046875 13.41660156 -1.6653125 14.19648437 -2 15 C-2.99 15.33 -3.98 15.66 -5 16 C-4.54548816 14.26982492 -4.08621143 12.54090123 -3.625 10.8125 C-3.36976563 9.84957031 -3.11453125 8.88664062 -2.8515625 7.89453125 C-2.05233704 5.17789793 -1.0968638 2.60862825 0 0 Z " fill="#9BCA3C" transform="translate(240,23)"/>
<path d="M0 0 C0 0.66 0 1.32 0 2 C-4.29 2.99 -8.58 3.98 -13 5 C-12.67 4.01 -12.34 3.02 -12 2 C-7.9083139 0.19204568 -4.44280672 -0.21156222 0 0 Z " fill="#9DCE3A" transform="translate(285,22)"/>
<path d="M0 0 C2.8829611 1.67397741 3.86844097 2.5771317 4.875 5.8125 C5.01350354 9.34434018 4.3178719 11.74408119 3 15 C2.67 15 2.34 15 2 15 C2 11.7 2 8.4 2 5 C1.34 4.67 0.68 4.34 0 4 C0 2.68 0 1.36 0 0 Z " fill="#9ECC2E" transform="translate(218,42)"/>
<path d="M0 0 C2 1 4 2 6 3 C6 3.99 6 4.98 6 6 C4.02 6 2.04 6 0 6 C0 4.02 0 2.04 0 0 Z " fill="#98CA2E" transform="translate(377,28)"/>
<path d="M0 0 C1.65 0 3.3 0 5 0 C5 2.83967231 4.59732819 5.23735711 4 8 C2.68 7.34 1.36 6.68 0 6 C0 4.02 0 2.04 0 0 Z " fill="#9BC93C" transform="translate(160,24)"/>
<path d="M0 0 C1.670625 0.061875 1.670625 0.061875 3.375 0.125 C3.375 1.775 3.375 3.425 3.375 5.125 C1.725 5.455 0.075 5.785 -1.625 6.125 C-1.295 5.465 -0.965 4.805 -0.625 4.125 C0.035 4.125 0.695 4.125 1.375 4.125 C1.375 3.465 1.375 2.805 1.375 2.125 C-0.935 2.125 -3.245 2.125 -5.625 2.125 C-3.625 0.125 -3.625 0.125 0 0 Z " fill="#98C63B" transform="translate(28.625,22.875)"/>
<path d="M0 0 C1.17571451 3.67410785 1.07366746 7.16929183 1 11 C-0.65 11.66 -2.3 12.32 -4 13 C-3.52343588 11.20763933 -3.04366502 9.41613103 -2.5625 7.625 C-2.29566406 6.62726562 -2.02882812 5.62953125 -1.75390625 4.6015625 C-1 2 -1 2 0 0 Z " fill="#99C93A" transform="translate(234,40)"/>
<path d="M0 0 C0.99 0.33 1.98 0.66 3 1 C3 3.64 3 6.28 3 9 C4.65 9 6.3 9 8 9 C8 9.33 8 9.66 8 10 C6.00045254 10.04254356 3.99958364 10.04080783 2 10 C1 9 1 9 0.9375 5.9375 C0.958125 4.968125 0.97875 3.99875 1 3 C0.34 3 -0.32 3 -1 3 C-0.67 2.01 -0.34 1.02 0 0 Z " fill="#98D327" transform="translate(60,51)"/>
<path d="M0 0 C2.31 0 4.62 0 7 0 C6.34 1.98 5.68 3.96 5 6 C2.5 4.6875 2.5 4.6875 0 3 C0 2.01 0 1.02 0 0 Z " fill="#92D919" transform="translate(377,25)"/>
<path d="M0 0 C1.32 0.33 2.64 0.66 4 1 C4 2.65 4 4.3 4 6 C2.68 6 1.36 6 0 6 C0 4.02 0 2.04 0 0 Z " fill="#A0CE32" transform="translate(313,55)"/>
<path d="M0 0 C3.3 0 6.6 0 10 0 C10 1.65 10 3.3 10 5 C9.01 5.33 8.02 5.66 7 6 C7.33 4.68 7.66 3.36 8 2 C5.36 1.67 2.72 1.34 0 1 C0 0.67 0 0.34 0 0 Z " fill="#A8D439" transform="translate(307,23)"/>
<path d="M0 0 C1.99097846 2.98646769 2.94124926 5.59687262 4 9 C3.01 9 2.02 9 1 9 C-0.4783226 6.04335481 -0.06032783 3.25770263 0 0 Z " fill="#98CE2F" transform="translate(257,48)"/>
<path d="M0 0 C3.3 0.66 6.6 1.32 10 2 C10 2.33 10 2.66 10 3 C4.06 3.495 4.06 3.495 -2 4 C-1.34 2.68 -0.68 1.36 0 0 Z " fill="#BBE025" transform="translate(303,58)"/>
<path d="M0 0 C0.99 0 1.98 0 3 0 C2.49396008 2.16874252 2.00016187 3.99967627 1 6 C0.34 6 -0.32 6 -1 6 C-1.042721 4.33388095 -1.04063832 2.66617115 -1 1 C-0.67 0.67 -0.34 0.34 0 0 Z " fill="#A8D641" transform="translate(302,22)"/>
</svg>
